<svg xmlns="http://www.w3.org/2000/svg" viewBox="0 0 352 352"><defs><style>.cls-1{fill:#121215;}</style></defs><g id="Capa_2" data-name="Capa 2"><g id="Capa_5" data-name="Capa 5"><path class="cls-1" d="M81,107.13V247.21a25,25,0,0,0,25,25H246a25,25,0,0,0,25-25V107.13a25,25,0,0,0-25-25H106A25,25,0,0,0,81,107.13Zm79.79,123.33a18.86,18.86,0,0,1-4.57,3.86,13.93,13.93,0,0,1-5.87,1.81c-1.76.16-4.1.34-5.3.34H114.48V190.09h30.57q9.9,0,15.21,4.93c6,5.58,6.1,13.32,6.13,18C166.41,216,166.47,224.15,160.79,230.46Zm-46.31-67.33V117.87h29.6q19.15,0,19.16,22.63t-18.92,22.63Zm123-3H207v33h30.48v45.55H190.84a58.21,58.21,0,0,0,6.79-21c.57-4.72,1.86-16.67-4.06-28.14a35,35,0,0,0-9.32-11.74,34.14,34.14,0,0,0-5.24-3.43,48.08,48.08,0,0,0,14.56-42.12,49.14,49.14,0,0,0-5.46-16.37l49.41-.18Z"/><path class="cls-1" d="M176,0A176,176,0,1,0,352,176,176,176,0,0,0,176,0Zm0,326.86C92.82,326.86,25.14,259.18,25.14,176S92.82,25.14,176,25.14,326.86,92.82,326.86,176,259.18,326.86,176,326.86Z"/></g></g></svg>