<svg xmlns="http://www.w3.org/2000/svg" viewBox="0 0 321.71 321.71"><defs><style>.cls-1{fill:#121215;}.cls-2{fill:#fff;}</style></defs><g id="Capa_2" data-name="Capa 2"><g id="Capa_5" data-name="Capa 5"><circle class="cls-1" cx="160.86" cy="160.86" r="160.86"/><path class="cls-2" d="M65.86,90.82V230.9a25,25,0,0,0,25,25H230.9a25,25,0,0,0,25-25V90.82a25,25,0,0,0-25-25H90.82A25,25,0,0,0,65.86,90.82Zm79.79,123.33a19.28,19.28,0,0,1-4.57,3.86,13.93,13.93,0,0,1-5.87,1.81c-1.76.15-4.1.34-5.31.34H99.34V173.78H129.9q9.91,0,15.22,4.93c6,5.58,6.1,13.32,6.13,18C151.27,199.69,151.33,207.84,145.65,214.15ZM99.34,146.82V101.55h29.59q19.17,0,19.17,22.64t-18.92,22.63Zm123-3H191.9v33h30.48v45.55H175.69a57.81,57.81,0,0,0,6.79-21c.57-4.72,1.86-16.67-4-28.14a35,35,0,0,0-9.32-11.74,33.4,33.4,0,0,0-5.24-3.43,48.16,48.16,0,0,0,14.56-42.12A49.35,49.35,0,0,0,173,99.57l49.42-.18Z"/></g></g></svg>