<svg xmlns="http://www.w3.org/2000/svg" viewBox="0 0 1035.31 189.87"><defs><style>.cls-1{fill:#fff;}.cls-2{fill:#02b988;}</style></defs><g id="Capa_2" data-name="Capa 2"><g id="Capa_6" data-name="Capa 6"><path class="cls-1" d="M221.64,3.87h71.09q28.22,0,42.33,11.32t14.11,36.6q0,15.18-4.53,24.1T329.2,91.73q12,5.05,17.71,14.64T352.63,133q0,26.35-15.44,39.13t-43.4,12.78H221.64Zm69.22,31.42H258.38V78.42h32.75q20.76,0,20.76-21.57T290.86,35.29Zm1.07,74H258.38v44.2h33.55q12,0,17.7-4.79t5.73-17.58Q315.36,109.31,291.93,109.3Z"/><path class="cls-1" d="M377.79,184.91V3.87H494.93v32h-80.4V78.15H479v31.42H414.53V153h80.4v31.95Z"/><path class="cls-1" d="M632.41,182q-28.21,6.14-50.85,6.13t-36.21-5.59a44.72,44.72,0,0,1-21.3-17.84,79.4,79.4,0,0,1-10.65-28.75q-2.92-16.52-2.92-41.54,0-52.44,14.77-73.08T579.7.68q22.89,0,53,7.19l-1.07,29.28q-26.36-4-43.79-4t-24.9,4.66q-7.45,4.65-11,17.7T548.28,100q0,31.42,7.32,43.53t29.29,12.12a313.81,313.81,0,0,0,46.72-3.73Z"/><path class="cls-1" d="M778.92,165.61q-16.9,22.5-58.17,22.5t-58.17-22.5q-16.92-22.5-16.91-70.42T662.58,24Q679.49.68,720.75.68T778.92,24q16.91,23.31,16.91,71.22T778.92,165.61Zm-87.59-23.43q7.84,14,29.42,14t29.42-14q7.85-14,7.85-46.86t-8-47.79q-8-14.89-29.29-14.91T691.46,47.53q-8,14.92-8,47.79T691.33,142.18Z"/><path class="cls-1" d="M821.39,184.91V3.87h36.74v181Z"/><path class="cls-1" d="M890.21,184.91V3.87h62L995.9,153h2.67V3.87h36.74v181H974.87L929.61,35.82H927V184.91Z"/><circle class="cls-2" cx="94.93" cy="94.93" r="94.93"/><path class="cls-1" d="M38.87,53.6v82.67A14.73,14.73,0,0,0,53.6,151h82.67A14.74,14.74,0,0,0,151,136.27V53.6a14.73,14.73,0,0,0-14.73-14.73H53.6A14.72,14.72,0,0,0,38.87,53.6ZM86,126.39a11.47,11.47,0,0,1-2.7,2.27,8.28,8.28,0,0,1-3.47,1.07c-1,.09-2.41.2-3.13.2h-18V102.56h18c3.9,0,6.9,1,9,2.91,3.55,3.29,3.6,7.86,3.62,10.61C89.28,117.85,89.31,122.66,86,126.39ZM58.62,86.65V59.93H76.09q11.31,0,11.31,13.36T76.24,86.65Zm72.62-1.78h-18v19.46h18v26.88H103.69a34.52,34.52,0,0,0,4-12.38c.33-2.79,1.09-9.83-2.4-16.6a20.46,20.46,0,0,0-5.5-6.93,19,19,0,0,0-3.09-2,28.38,28.38,0,0,0,8.59-24.86,29.3,29.3,0,0,0-3.22-9.66l29.16-.11Z"/></g></g></svg>