<svg xmlns="http://www.w3.org/2000/svg" viewBox="0 0 190 190"><defs><style>.cls-1{fill:#02b988;}</style></defs><g id="Capa_2" data-name="Capa 2"><g id="Capa_5" data-name="Capa 5"><path class="cls-1" d="M0,25V165a25,25,0,0,0,25,25H165a25,25,0,0,0,25-25V25A25,25,0,0,0,165,0H25A25,25,0,0,0,0,25ZM79.79,148.3a19.11,19.11,0,0,1-4.57,3.85A13.79,13.79,0,0,1,69.35,154c-1.76.16-4.1.34-5.3.34H33.48V107.92H64.05q9.9,0,15.21,4.93c6,5.58,6.1,13.32,6.13,18C85.41,133.83,85.47,142,79.79,148.3ZM33.48,81V35.7h29.6q19.15,0,19.16,22.63T63.32,81Zm123-3H126v33h30.48v45.54H109.84a58.21,58.21,0,0,0,6.79-21c.57-4.72,1.86-16.66-4.06-28.14a34.89,34.89,0,0,0-9.32-11.73A32.69,32.69,0,0,0,98,92.21a48.09,48.09,0,0,0,14.56-42.13,49.14,49.14,0,0,0-5.46-16.37l49.41-.18Z"/></g></g></svg>